<svg id="gameBackgroundSvgWide" width="600" height="430" viewBox="0 0 600 430" xmlns="http://www.w3.org/2000/svg">
    <defs>
        <linearGradient id="skyGradientWide" x1="50%" y1="0%" x2="50%" y2="100%">
            <stop offset="0%" style="stop-color:#FDB813;" /> <stop offset="40%" style="stop-color:#F8842F;" /> <stop offset="100%" style="stop-color:#E95D37;" /> </linearGradient>
    </defs>

    <rect x="0" y="0" width="600" height="430" fill="url(#skyGradientWide)" />

    <circle cx="480" cy="90" r="40" fill="#FFF352" />
    <circle cx="480" cy="90" r="55" fill="#FFF352" opacity="0.25" />

    <g fill="#4B443C" opacity="0.8">
        <path d="M100,120 Q105,115 110,120 T120,120" stroke="#4B443C" stroke-width="1.5" fill="none" />
        <path d="M130,100 Q135,95 140,100 T150,100" stroke="#4B443C" stroke-width="1.5" fill="none" />
        <path d="M115,140 Q120,135 125,140 T135,140" stroke="#4B443C" stroke-width="1.5" fill="none" />
         <path d="M300,80 Q305,75 310,80 T320,80" stroke="#4B443C" stroke-width="1.5" fill="none" />
        <path d="M330,95 Q335,90 340,95 T350,95" stroke="#4B443C" stroke-width="1.5" fill="none" />
    </g>

    <path d="M-10,290 
             Q80,250,160,260 
             T320,250 
             Q400,240,480,260 
             T610,270 
             L610,430 L-10,430 Z" 
          fill="#B0C4DE" /> <path d="M-10,340 
             Q100,300,200,310 
             T350,290 
             Q450,280,500,300 
             T610,320 
             L610,430 L-10,430 Z" 
          fill="#778899" /> <path d="M-10,430 
             L-10,390
             Q120,340,240,360 
             T400,340 
             Q500,330,550,350 
             T610,370
             L610,430 Z" 
          fill="#5A6A5A" /> <g fill="#2F3E2F"> <polygon points="50,390 57,360 64,390" /> 
        <rect x="56" y="390" width="2" height="7" /> 

        <polygon points="100,380 110,340 120,380" />
        <rect x="109" y="380" width="3" height="10" />
        
        <polygon points="180,375 190,330 200,375" />
        <rect x="189" y="375" width="3" height="12" />

        <polygon points="250,360 257,335 264,360" />
        <rect x="256" y="360" width="2" height="8" />

        <polygon points="330,385 340,345 350,385" />
        <rect x="339" y="385" width="3" height="11" />

        <polygon points="420,370 430,320 440,370" />
        <rect x="429" y="370" width="3" height="15" />

        <polygon points="500,365 508,340 516,365" />
        <rect x="507" y="365" width="2" height="9" />

         <polygon points="560,370 567,345 574,370" />
        <rect x="566" y="370" width="2" height="8" />
    </g>
</svg>
