<svg width="320" height="50" xmlns="http://www.w3.org/2000/svg">
    <rect width="320" height="50" fill="#6B4226"/>

    <rect y="15" width="320" height="35" fill="#2E7D32"/>

    <g fill="#4CAF50">
        <rect x="0" y="15" width="10" height="10"/>
        <rect x="20" y="15" width="10" height="10"/>
        <rect x="40" y="12" width="10" height="13"/>
        <rect x="60" y="15" width="10" height="10"/>
        <rect x="80" y="13" width="10" height="12"/>
        <rect x="100" y="15" width="10" height="10"/>
        <rect x="120" y="12" width="10" height="13"/>
        <rect x="140" y="15" width="10" height="10"/>
        <rect x="160" y="14" width="10" height="11"/>
        <rect x="180" y="15" width="10" height="10"/>
        <rect x="200" y="12" width="10" height="13"/>
        <rect x="220" y="15" width="10" height="10"/>
        <rect x="240" y="13" width="10" height="12"/>
        <rect x="260" y="15" width="10" height="10"/>
        <rect x="280" y="12" width="10" height="13"/>
        <rect x="300" y="15" width="10" height="10"/>
        <rect x="310" y="12" width="10" height="13"/> <rect x="5" y="22" width="10" height="8"/>
        <rect x="25" y="20" width="10" height="10"/>
        <rect x="45" y="23" width="10" height="7"/>
        <rect x="65" y="22" width="10" height="8"/>
        <rect x="85" y="20" width="10" height="10"/>
        <rect x="105" y="23" width="10" height="7"/>
        <rect x="125" y="22" width="10" height="8"/>
        <rect x="145" y="20" width="10" height="10"/>
        <rect x="165" y="23" width="10" height="7"/>
        <rect x="185" y="22" width="10" height="8"/>
        <rect x="205" y="20" width="10" height="10"/>
        <rect x="225" y="23" width="10" height="7"/>
        <rect x="245" y="22" width="10" height="8"/>
        <rect x="265" y="20" width="10" height="10"/>
        <rect x="285" y="23" width="10" height="7"/>
        <rect x="305" y="22" width="10" height="8"/>
    </g>
</svg>